<svg width="256" height="256" viewBox="0 0 256 256" fill="none" xmlns="http://www.w3.org/2000/svg">
<rect width="256" height="256" fill="#BCDBF7"/>
<path d="M188.5 155.5H155.5V166.5H122.5V177.5H67.5V188.5H34.5V199.5H67.5V188.5H122.5V177.5H155.5V166.5H188.5V155.5Z" fill="#5792E2"/>
<path d="M221.5 111.5H210.5V122.5H188.5V133.5H166.5V144.5H177.5V155.5H199.5V144.5H210.5V133.5H221.5V111.5Z" fill="#519FE6"/>
<path d="M122.5 166.5H67.5V177.5H45.5V188.5H67.5V177.5H122.5V166.5Z" fill="#2222B3"/>
<path d="M67.5 144.5H78.5V155.5H111.5V166.5H67.5V144.5Z" fill="#3517A4"/>
<path d="M67.5 166.5V177.5H56.5V166.5H67.5Z" fill="#3517A4"/>
<path d="M56.5 56.5H45.5V67.5H56.5V56.5Z" fill="#4977DB"/>
<path d="M67.5 78.5H56.5V89.5001H67.5V100.5H78.5V122.5H100.5V133.5H122.5V144.5H133.5V155.5H177.5V144.5H166.5V133.5H144.5V122.5H111.5V111.5H89.5V100.5H78.5V89.5001H67.5V78.5Z" fill="#4977DB"/>
<path d="M100.5 122.501H89.5V144.501H100.5V155.501H111.5V166.501H155.5V155.501H133.5V144.501H122.5V133.501H100.5V122.501Z" fill="#3452C5"/>
<path d="M45.5 67.5H56.5V89.5H67.5V100.5H78.5V122.5H89.5V144.5H100.5V155.5H78.5V144.5H67.5V133.5H56.5V100.5H45.5V67.5Z" fill="#2222B3"/>
</svg>
